<?xml version="1.0" encoding="utf-8"?>
<!-- Generator: Adobe Illustrator 15.1.0, SVG Export Plug-In . SVG Version: 6.00 Build 0)  -->
<!DOCTYPE svg PUBLIC "-//W3C//DTD SVG 1.1//EN" "http://www.w3.org/Graphics/SVG/1.1/DTD/svg11.dtd">
<svg version="1.1" id="Capa_1" xmlns="http://www.w3.org/2000/svg" xmlns:xlink="http://www.w3.org/1999/xlink" x="0px" y="0px"
	 width="148px" height="148px" viewBox="0 0 148 148" enable-background="new 0 0 148 148" xml:space="preserve">
<path fill="#00A0E3" d="M85.432,91.914h6.256c-2.91,6.947-9.744,11.699-17.687,11.699c-10.58,0-19.187-8.607-19.187-19.188
	c0-10.579,8.608-19.187,19.187-19.187c7.34,0,13.767,4.056,16.99,10.22H85.43c-2.85,0-5.158,2.31-5.158,5.157v6.14
	C80.271,89.604,82.582,91.914,85.432,91.914z M136.464,40.852v90.916c0,5.494-4.468,9.963-9.96,9.963H21.498
	c-5.493,0-9.961-4.469-9.961-9.963V40.852H136.464z M111.537,80.998c0-2.85-2.311-5.158-5.158-5.158h-4.146
	c-3.698-12.332-14.993-20.919-28.231-20.919c-16.269,0-29.503,13.235-29.503,29.504c0,16.269,13.235,29.505,29.503,29.505
	c13.822,0,25.46-9.369,28.644-22.397h3.733c2.851,0,5.158-2.31,5.158-5.158L111.537,80.998L111.537,80.998z M11.537,30.536V9.962
	C11.537,4.47,16.005,0,21.498,0h105.006c5.492,0,9.96,4.47,9.96,9.962v20.573L11.537,30.536L11.537,30.536z M54.727,16.321
	c0,2.85,2.309,5.158,5.158,5.158h7.576c2.85,0,5.158-2.309,5.158-5.158c0-2.849-2.309-5.158-5.158-5.158h-7.576
	C57.037,11.163,54.727,13.472,54.727,16.321z M21.852,16.321c0,4.064,3.306,7.37,7.37,7.37s7.37-3.305,7.37-7.37
	c0-4.064-3.306-7.369-7.37-7.369S21.852,12.257,21.852,16.321z"/>
</svg>
