<?xml version="1.0" encoding="utf-8"?>
<!-- Generator: Adobe Illustrator 15.1.0, SVG Export Plug-In . SVG Version: 6.00 Build 0)  -->
<!DOCTYPE svg PUBLIC "-//W3C//DTD SVG 1.1//EN" "http://www.w3.org/Graphics/SVG/1.1/DTD/svg11.dtd">
<svg version="1.1" id="Header" xmlns="http://www.w3.org/2000/svg" xmlns:xlink="http://www.w3.org/1999/xlink" x="0px" y="0px"
	 width="148px" height="296.001px" viewBox="0 0 148 296.001" enable-background="new 0 0 148 296.001" xml:space="preserve">
<path fill-rule="evenodd" clip-rule="evenodd" fill="#999999" d="M81.255,87.456c3.649-0.831,7.166-2.278,10.402-4.312
	c2.453-1.545,3.191-4.782,1.646-7.241s-4.781-3.2-7.238-1.654c-7.343,4.619-16.786,4.609-24.129,0
	c-2.457-1.546-5.692-0.805-7.238,1.654c-1.546,2.449-0.803,5.695,1.646,7.241c3.236,2.034,6.749,3.481,10.402,4.312L56.74,97.47
	c-2.056,2.054-2.056,5.37,0,7.421c1.028,1.021,2.365,1.538,3.706,1.538c1.345,0,2.682-0.516,3.714-1.538l9.844-9.844l9.845,9.844
	c2.051,2.051,5.367,2.051,7.423,0c2.052-2.052,2.052-5.378,0-7.421L81.255,87.456L81.255,87.456L81.255,87.456z M74.004,47.509
	c4.095,0,7.424,3.328,7.424,7.423c0,4.085-3.329,7.411-7.424,7.411c-4.087,0-7.423-3.326-7.423-7.411
	C66.581,50.837,69.917,47.509,74.004,47.509L74.004,47.509z M74.004,72.838L74.004,72.838c-9.88,0-17.914-8.036-17.914-17.916
	s8.034-17.916,17.914-17.916c9.881,0,17.918,8.036,17.918,17.926C91.922,64.802,83.885,72.838,74.004,72.838z"/>
<path fill-rule="evenodd" clip-rule="evenodd" fill="#FFFFFF" d="M81.255,235.456c3.649-0.831,7.166-2.278,10.402-4.312
	c2.453-1.545,3.191-4.782,1.646-7.241s-4.781-3.2-7.238-1.654c-7.343,4.619-16.786,4.609-24.129,0
	c-2.457-1.546-5.692-0.805-7.238,1.654c-1.546,2.449-0.803,5.695,1.646,7.241c3.236,2.034,6.749,3.481,10.402,4.312L56.74,245.47
	c-2.056,2.054-2.056,5.37,0,7.421c1.028,1.021,2.365,1.538,3.706,1.538c1.345,0,2.682-0.516,3.714-1.538l9.844-9.844l9.845,9.844
	c2.051,2.051,5.367,2.051,7.423,0c2.052-2.052,2.052-5.378,0-7.421L81.255,235.456L81.255,235.456L81.255,235.456z M74.004,195.509
	c4.095,0,7.424,3.328,7.424,7.423c0,4.085-3.329,7.411-7.424,7.411c-4.087,0-7.423-3.326-7.423-7.411
	C66.581,198.837,69.917,195.509,74.004,195.509L74.004,195.509z M74.004,220.838L74.004,220.838c-9.88,0-17.914-8.036-17.914-17.916
	s8.034-17.916,17.914-17.916c9.881,0,17.918,8.036,17.918,17.926C91.922,212.802,83.885,220.838,74.004,220.838z"/>
</svg>
