<?xml version="1.0" encoding="utf-8"?>
<!-- Generator: Adobe Illustrator 15.1.0, SVG Export Plug-In . SVG Version: 6.00 Build 0)  -->
<!DOCTYPE svg PUBLIC "-//W3C//DTD SVG 1.1//EN" "http://www.w3.org/Graphics/SVG/1.1/DTD/svg11.dtd">
<svg version="1.1" xmlns="http://www.w3.org/2000/svg" xmlns:xlink="http://www.w3.org/1999/xlink" x="0px" y="0px" width="148px"
	 height="148px" viewBox="0 0 148 148" enable-background="new 0 0 148 148" xml:space="preserve">
<path fill-rule="evenodd" clip-rule="evenodd" fill="#666666" d="M22.819,79.018l-8.55,12.487c-1.919,2.813-5.759,3.537-8.575,1.618
	c-2.813-1.918-3.537-5.759-1.618-8.574l8.58-12.527c-3.897-3.052-7.56-6.385-10.958-9.973c-2.349-2.467-2.249-6.374,0.217-8.72
	s6.374-2.249,8.719,0.217c8.097,8.548,17.922,15.464,28.915,20.192c10.558,4.538,22.205,7.058,34.448,7.058
	c12.249,0,23.896-2.52,34.451-7.058c10.993-4.729,20.82-11.645,28.917-20.192c2.346-2.466,6.253-2.563,8.72-0.217
	c2.466,2.346,2.563,6.253,0.217,8.72c-3.399,3.588-7.065,6.924-10.963,9.975l8.58,12.527c1.919,2.813,1.194,6.653-1.618,8.575
	c-2.815,1.919-6.655,1.194-8.575-1.618l-8.55-12.49c-3.794,2.281-7.75,4.31-11.849,6.073c-1.186,0.51-2.386,0.996-3.596,1.463
	l4.86,13.808c1.119,3.212-0.577,6.728-3.792,7.847c-3.215,1.122-6.728-0.577-7.85-3.792l-4.984-14.162
	c-5.749,1.422-11.693,2.346-17.782,2.719v14.978c0,3.417-2.767,6.183-6.183,6.183c-3.414,0-6.184-2.767-6.184-6.183V92.973
	c-6.089-0.373-12.036-1.296-17.785-2.719l-4.986,14.162c-1.122,3.215-4.635,4.914-7.85,3.792c-3.212-1.119-4.911-4.635-3.792-7.847
	l4.86-13.808c-1.21-0.464-2.407-0.953-3.594-1.463C30.573,83.328,26.614,81.293,22.819,79.018z"/>
</svg>
