<?xml version="1.0" encoding="utf-8"?>
<!-- Generator: Adobe Illustrator 15.1.0, SVG Export Plug-In . SVG Version: 6.00 Build 0)  -->
<!DOCTYPE svg PUBLIC "-//W3C//DTD SVG 1.1//EN" "http://www.w3.org/Graphics/SVG/1.1/DTD/svg11.dtd">
<svg version="1.1" xmlns="http://www.w3.org/2000/svg" xmlns:xlink="http://www.w3.org/1999/xlink" x="0px" y="0px"
	 width="147.999px" height="148px" viewBox="0 0 147.999 148" enable-background="new 0 0 147.999 148" xml:space="preserve">
<path fill-rule="evenodd" clip-rule="evenodd" fill="#666666" d="M145.893,135.198c2.798,2.779,2.81,7.301,0.031,10.098
	c-2.778,2.794-7.304,2.807-10.095,0.028L74,84.039l-61.829,61.286c-2.797,2.778-7.316,2.766-10.101-0.028
	c-2.772-2.797-2.76-7.319,0.031-10.098l61.754-61.21L2.102,12.802C-0.689,10.023-0.702,5.501,2.07,2.704
	C4.854-0.09,9.374-0.103,12.171,2.676L74,63.934l61.829-61.258c2.791-2.778,7.316-2.766,10.095,0.028
	c2.778,2.797,2.767,7.319-0.031,10.098L84.139,73.988L145.893,135.198z"/>
</svg>
