<?xml version="1.0" encoding="utf-8"?>
<!-- Generator: Adobe Illustrator 15.1.0, SVG Export Plug-In . SVG Version: 6.00 Build 0)  -->
<!DOCTYPE svg PUBLIC "-//W3C//DTD SVG 1.1//EN" "http://www.w3.org/Graphics/SVG/1.1/DTD/svg11.dtd">
<svg version="1.1" id="Capa_1" xmlns="http://www.w3.org/2000/svg" xmlns:xlink="http://www.w3.org/1999/xlink" x="0px" y="0px"
	 width="148px" height="148px" viewBox="0 0 148 148" enable-background="new 0 0 148 148" xml:space="preserve">
<path fill="#00A0E3" d="M117.417,36.413c-6.981,0-13.956,0-20.938,0c0-9.754,0-19.507,0-29.26c0-0.007,0-0.013,0-0.02
	c0-1.773-1.48-3.253-3.252-3.253c-12.728,0-25.453,0-38.177,0c-1.773,0-3.253,1.48-3.253,3.253c0,9.759,0,19.519,0,29.279
	c0,0,0,0-0.002,0c-7.073,0-14.142,0-21.214,0c-1.774,0-3.253,1.479-3.253,3.253c0,19.04,0,38.084,0,57.125
	c0,12.986,0,25.972,0,38.965c0,1.772,1.479,3.253,3.253,3.253c19.708,0,39.412,0,59.121,0c9.245,0,18.478,0,27.718,0
	c0.885,0,1.548-0.333,2.059-0.792c0.075-0.06,0.163-0.102,0.229-0.173c0.065-0.068,0.104-0.14,0.158-0.21
	c0.473-0.515,0.808-1.174,0.808-2.078c0-19.045,0-38.087,0-57.131c0-12.99,0-25.966,0-38.959
	C120.67,37.891,119.19,36.413,117.417,36.413z M58.305,10.385c10.56,0,21.117,0,31.671,0c0,8.676,0,17.35,0,26.026h-0.003
	c-10.556,0-21.111,0-31.668,0C58.305,27.735,58.305,19.062,58.305,10.385z M46.445,132.497c-4.203,0-8.405,0-12.607,0
	c0-4.289,0-8.579,0-12.865c4.203,0,8.404,0,12.607,0C46.445,123.919,46.445,128.208,46.445,132.497z M114.163,132.497
	c-4.14,0-8.28,0-12.414,0c0-4.289,0-8.579,0-12.865c4.134,0,8.274,0,12.414,0C114.163,123.919,114.163,128.208,114.163,132.497z
	 M114.163,96.791c0,6.534,0,13.065,0,19.589c-4.68,0-9.36,0-14.041,0c-0.889,0-1.627,0.737-1.627,1.625c0,4.828,0,9.665,0,14.492
	c-13.396,0-26.796,0-40.197,0c-2.867,0-5.735,0-8.601,0c0-4.827,0-9.664,0-14.493c0-0.887-0.739-1.624-1.627-1.624
	c-4.743,0-9.491,0-14.233,0c0-12.586,0-25.167,0-37.755c0-11.903,0-23.799,0-35.706c5.986,0,11.975,0,17.961,0
	c2.169,0,4.336,0,6.505,0c10.466,0,20.935,0,31.401,0c0.088,0,0.182,0,0.27,0c2.17,0,4.336,0,6.507,0c5.894,0,11.79,0,17.684,0
	C114.163,60.876,114.163,78.834,114.163,96.791z M77.658,81.361c1.293-2.878,1.618-7.353-2.391-9.235
	c-5.553-2.613-9.596,3.146-8.375,5.017c0.435,0.42,1.274-0.118,1.997-0.481c0.803-0.399,1.463-0.585,1.274,1.005
	c-0.319,2.666-6.591,18.495-1.878,23.585c2.679,2.893,7.142,1.5,9.041-0.239c0.632-0.579,1.119-1.38,1.094-2.334
	c-0.022-0.834-1.239-0.786-1.474-0.757c-4.1,0.523-2.678-4.789-2.442-5.806C75.05,89.739,76.982,82.867,77.658,81.361z
	 M73.377,58.172c2.365,0,4.282,1.917,4.282,4.281c0,2.364-1.917,4.281-4.282,4.281c-2.364,0-4.28-1.917-4.28-4.281
	C69.097,60.088,71.013,58.172,73.377,58.172z"/>
</svg>
