<?xml version="1.0" encoding="UTF-8"?>
<!DOCTYPE svg PUBLIC "-//W3C//DTD SVG 1.1//EN" "http://www.w3.org/Graphics/SVG/1.1/DTD/svg11.dtd">
<!-- Creator: CorelDRAW X8 -->
<svg xmlns="http://www.w3.org/2000/svg" xml:space="preserve" width="217px" height="32px" version="1.1" style="shape-rendering:geometricPrecision; text-rendering:geometricPrecision; image-rendering:optimizeQuality; fill-rule:evenodd; clip-rule:evenodd"
viewBox="0 0 126 18"
 xmlns:xlink="http://www.w3.org/1999/xlink">
 <defs>
  <style type="text/css">
   <![CDATA[
    .fil0 {fill:black;fill-rule:nonzero}
   ]]>
  </style>
 </defs>
 <g id="Header">
  <metadata id="CorelCorpID_0Corel-Layer"/>
  <g id="_1651962081296">
   <path class="fil0" d="M0 0l4 0 0 1 -3 0 0 2 2 0c0,0 1,0 1,0 0,0 1,0 1,1 0,0 0,0 0,1 0,0 0,0 0,1 0,0 -1,0 -1,0 0,1 -1,1 -1,1l-3 0 0 -7zm1 6l2 0c0,0 1,0 1,0 0,-1 0,-1 0,-1 0,-1 0,-1 0,-1 0,0 0,0 -1,0 0,0 0,0 -1,0l-1 0 0 2zm8 0c0,0 0,0 -1,1 0,0 0,0 -1,0 0,0 -1,0 -1,-1 0,0 0,0 0,-1 0,0 0,0 0,0 0,0 0,-1 0,-1 0,0 1,0 1,0 0,0 0,0 1,0 0,0 1,0 1,0 0,-1 0,-1 0,-1 0,0 0,0 0,0 0,-1 -1,-1 -1,-1 0,0 -1,0 -1,1 0,0 0,0 0,0l-1 0c0,0 0,0 0,-1 0,0 1,0 1,0 0,0 1,0 1,0 0,0 1,0 1,0 0,0 0,0 1,0 0,0 0,1 0,1 0,0 0,0 0,1l0 1c0,0 0,1 0,1 0,0 0,0 0,1l-1 0c0,-1 0,-1 0,-1zm0 -2c0,0 -1,0 -1,1 -1,0 -1,0 -1,0 0,0 0,0 0,0 0,0 0,0 0,0 0,1 0,1 0,1 0,0 0,0 1,0 0,0 0,0 0,0 1,0 1,0 1,-1 0,0 0,0 0,0l0 -1zm2 4l0 0c0,0 0,0 0,0 1,0 1,0 1,0 0,0 0,0 0,-1 0,0 0,0 0,0 0,0 0,0 0,0l-1 -5 0 0 1 3c1,0 1,0 1,1 0,-1 0,-1 0,-1l1 -3 1 0 -2 5c0,0 0,1 0,1 0,0 -1,0 -1,0 0,1 0,1 0,1 -1,0 -1,0 -1,-1zm5 -6l0 0 0 2 3 0 0 -2 1 0 0 5 -1 0 0 -3 -3 0 0 3 0 0 0 -5zm4 0l4 0 0 0 -1 0 0 5 -1 0 0 -5 -2 0 0 0zm5 2c0,-1 0,-1 0,-2 1,0 1,0 2,0 1,0 1,0 1,0 1,1 1,1 1,2 0,1 0,1 0,2 0,0 -1,0 -1,0 0,1 -1,1 -1,1 -1,0 -1,0 -2,-1 0,0 0,-1 0,-2zm0 0c0,1 1,1 1,2 0,0 0,0 1,0 0,0 1,0 1,0 0,-1 0,-1 0,-2 0,0 0,-1 0,-1 0,0 -1,-1 -1,-1 -1,0 -1,1 -1,1 0,0 -1,1 -1,1zm5 -2l2 0c0,0 1,0 1,0 0,0 0,0 1,0 0,1 0,1 0,1 0,0 0,1 0,1 0,0 -1,0 -1,0 0,0 1,0 1,1 0,0 0,0 0,0 0,1 0,1 0,1 -1,1 -1,1 -2,1l-2 0 0 -5zm1 2l1 0c0,0 0,0 0,0 1,0 1,0 1,0 0,-1 0,-1 0,-1 0,0 0,0 0,0 0,0 -1,-1 -1,-1l-1 0 0 2zm0 2l1 0c0,0 1,0 1,0 0,0 0,0 0,-1 0,0 0,0 0,0 0,0 0,0 0,0 -1,0 -1,0 -1,0l-1 0 0 1zm7 -1l1 0c0,1 0,1 -1,1 0,1 -1,1 -1,1 -1,0 -1,0 -2,-1 0,0 0,-1 0,-2 0,0 0,-1 0,-1 0,-1 0,-1 1,-1 0,0 0,0 1,0 0,0 1,0 1,0 0,0 1,1 1,1l-1 0c0,0 0,0 0,0 -1,-1 -1,-1 -1,-1 -1,0 -1,1 -1,1 0,0 -1,1 -1,1 0,1 1,1 1,2 0,0 0,0 1,0 0,0 0,0 1,0 0,0 0,-1 0,-1zm2 -3l0 0 0 2c1,0 1,0 1,0 0,0 0,-1 0,-1 0,0 1,-1 1,-1 0,0 0,0 0,0 0,0 0,0 1,0l0 0 0 0 0 0c-1,0 -1,1 -1,1 0,0 0,0 0,0 0,0 0,1 0,1 -1,0 -1,0 -1,0 0,0 1,1 1,1l1 2 -1 0 -1 -2c0,0 0,0 0,0 0,-1 0,-1 -1,-1l0 3 0 0 0 -5zm7 4c0,0 -1,0 -1,1 0,0 -1,0 -1,0 0,0 -1,0 -1,-1 0,0 0,0 0,-1 0,0 0,0 0,0 0,0 0,-1 0,-1 0,0 0,0 1,0 0,0 0,0 0,0 1,0 2,0 2,0 0,-1 0,-1 0,-1 0,0 0,0 0,0 -1,-1 -1,-1 -1,-1 -1,0 -1,0 -1,1 0,0 0,0 -1,0l0 0c0,0 0,0 0,-1 0,0 0,0 1,0 0,0 0,0 1,0 0,0 1,0 1,0 0,0 0,0 0,0 1,0 1,1 1,1 0,0 0,0 0,1l0 1c0,0 0,1 0,1 0,0 0,0 0,1l-1 0c0,-1 0,-1 0,-1zm0 -2c0,0 -1,0 -1,1 -1,0 -1,0 -1,0 0,0 0,0 -1,0 0,0 0,0 0,0 0,1 0,1 1,1 0,0 0,0 0,0 1,0 1,0 1,0 0,0 1,0 1,-1 0,0 0,0 0,0l0 -1zm6 -2l0 5 -1 0 0 -2 -1 0c0,0 0,0 0,0 0,0 -1,0 -1,1l-1 1 -1 0 1 -2c1,0 1,0 1,0 0,0 -1,-1 -1,-1 0,0 0,0 0,-1 0,0 0,-1 0,-1 0,0 1,0 1,0l3 0zm-1 0l-1 0c-1,0 -1,1 -1,1 0,0 0,0 0,0 0,1 0,1 0,1 0,0 0,0 1,0l1 0 0 -2zm5 6l0 -6 0 0 0 0c0,0 1,0 1,0 0,0 0,0 1,0 0,0 0,0 1,0 0,0 0,1 0,1 1,0 1,1 1,1 0,1 0,1 -1,2 0,0 0,0 0,0 -1,1 -1,1 -1,1 -1,0 -1,0 -1,0 0,-1 -1,-1 -1,-1l0 2 0 0zm0 -4c0,1 0,1 1,2 0,0 0,0 1,0 0,0 0,0 0,0 1,-1 1,-1 1,-2 0,0 0,-1 -1,-1 0,0 0,-1 0,-1 -1,0 -1,1 -1,1 -1,0 -1,1 -1,1zm8 2c-1,0 -1,0 -1,1 0,0 -1,0 -1,0 -1,0 -1,0 -1,-1 0,0 -1,0 -1,-1 0,0 0,0 1,0 0,0 0,-1 0,-1 0,0 0,0 1,0 0,0 0,0 0,0 1,0 1,0 2,0 0,-1 0,-1 0,-1 0,0 0,0 0,0 -1,-1 -1,-1 -1,-1 -1,0 -1,0 -1,1 0,0 -1,0 -1,0l0 0c0,0 0,0 0,-1 0,0 0,0 1,0 0,0 0,0 1,0 0,0 0,0 1,0 0,0 0,0 0,0 0,0 0,1 1,1 0,0 0,0 0,1l0 1c0,0 0,1 0,1 0,0 0,0 0,1l-1 0c0,-1 0,-1 0,-1zm0 -2c-1,0 -1,0 -2,1 0,0 0,0 0,0 0,0 -1,0 -1,0 0,0 0,0 0,0 0,1 0,1 0,1 1,0 1,0 1,0 1,0 1,0 1,0 0,0 0,0 1,-1 0,0 0,0 0,0l0 -1zm2 -2l1 0 0 3 2 -3 1 0 0 5 -1 0 0 -4 -2 4 -1 0 0 -5zm3 -2l0 0c0,0 0,1 0,1 0,0 -1,0 -1,0 -1,0 -1,0 -1,0 0,0 0,-1 0,-1l0 0c0,0 0,0 0,1 0,0 1,0 1,0 0,0 0,0 0,0 0,-1 1,-1 1,-1zm2 4c0,-1 0,-1 0,-2 1,0 1,0 2,0 1,0 1,0 2,0 0,1 0,1 0,2 0,1 0,1 0,2 0,0 -1,0 -1,0 0,1 -1,1 -1,1 -1,0 -1,0 -2,-1 0,0 0,-1 0,-2zm1 0c0,1 0,1 0,2 0,0 1,0 1,0 0,0 1,0 1,0 0,-1 0,-1 0,-2 0,0 0,-1 0,-1 0,0 -1,-1 -1,-1 0,0 -1,1 -1,1 0,0 0,1 0,1zm4 -2l1 0 0 2 2 0 0 -2 1 0 0 5 -1 0 0 -3 -2 0 0 3 -1 0 0 -5zm5 0l1 0 0 2 2 0 0 -2 1 0 0 5 -1 0 0 -3 -2 0 0 3 -1 0 0 -5zm8 4c0,0 0,0 0,1 -1,0 -1,0 -1,0 -1,0 -1,0 -2,-1 0,0 0,0 0,-1 0,0 0,0 0,0 0,0 0,-1 1,-1 0,0 0,0 0,0 0,0 1,0 1,0 1,0 1,0 1,0 0,-1 0,-1 0,-1 0,0 0,0 0,0 0,-1 0,-1 -1,-1 0,0 0,0 -1,1 0,0 0,0 0,0l-1 0c0,0 0,0 1,-1 0,0 0,0 0,0 1,0 1,0 1,0 1,0 1,0 1,0 1,0 1,0 1,0 0,0 0,1 0,1 0,0 0,0 0,1l0 1c0,0 0,1 0,1 0,0 0,0 0,1l0 0c0,-1 0,-1 -1,-1zm0 -2c0,0 0,0 -1,1 0,0 0,0 -1,0 0,0 0,0 0,0 0,0 0,0 0,0 0,1 0,1 0,1 0,0 1,0 1,0 0,0 1,0 1,0 0,0 0,0 0,-1 0,0 0,0 0,0l0 -1zm6 -2l0 5 -1 0 0 -2 0 0c0,0 0,0 -1,0 0,0 0,0 0,1l-1 1 -1 0 1 -2c0,0 0,0 1,0 -1,0 -1,-1 -1,-1 -1,0 -1,0 -1,-1 0,0 0,-1 1,-1 0,0 0,0 1,0l2 0zm-1 0l-1 0c0,0 0,1 -1,1 0,0 0,0 0,0 0,1 0,1 0,1 1,0 1,0 2,0l0 0 0 -2zm5 0l3 0 0 0 -2 0 0 5 -1 0 0 -5zm6 4c0,0 0,0 0,1 -1,0 -1,0 -1,0 -1,0 -1,0 -2,-1 0,0 0,0 0,-1 0,0 0,0 0,0 0,0 0,-1 1,-1 0,0 0,0 0,0 0,0 1,0 1,0 1,0 1,0 1,0 0,-1 0,-1 0,-1 0,0 0,0 0,0 0,-1 0,-1 -1,-1 0,0 0,0 -1,1 0,0 0,0 0,0l-1 0c0,0 0,0 0,-1 1,0 1,0 1,0 1,0 1,0 1,0 1,0 1,0 1,0 1,0 1,0 1,0 0,0 0,1 0,1 0,0 0,0 0,1l0 1c0,0 0,1 0,1 0,0 0,0 0,1l0 0c-1,-1 -1,-1 -1,-1zm0 -2c0,0 0,0 -1,1 0,0 -1,0 -1,0 0,0 0,0 0,0 0,0 0,0 0,0 0,1 0,1 0,1 0,0 1,0 1,0 0,0 0,0 1,0 0,0 0,0 0,-1 0,0 0,0 0,0l0 -1zm3 0l0 0c1,0 1,0 1,0 0,0 0,0 0,0 1,-1 1,-1 1,-1 0,0 0,0 -1,0 0,-1 0,-1 0,-1 -1,0 -1,1 -1,1l-1 0c0,-1 1,-1 2,-1 0,0 1,0 1,0 0,0 0,1 0,1 0,1 0,1 0,1 0,0 0,0 0,1 1,0 1,0 1,0 0,1 -1,1 -1,1 0,1 -1,1 -1,1 -1,0 -2,-1 -2,-2l1 0c0,0 0,1 0,1 0,0 1,0 1,0 0,0 0,0 1,0 0,0 0,-1 0,-1 0,0 0,0 0,0 0,0 -1,0 -1,0 0,-1 0,-1 0,-1 0,0 -1,0 -1,0zm7 1l1 0c-1,1 -1,1 -1,1 -1,1 -1,1 -2,1 0,0 -1,0 -1,-1 -1,0 -1,-1 -1,-2 0,-1 0,-1 1,-2 0,0 1,0 1,0 1,0 2,0 2,0 0,1 1,1 1,2 0,0 0,0 0,0l-4 0c0,1 0,1 0,2 1,0 1,0 1,0 1,0 1,0 1,0 0,0 1,-1 1,-1zm-3 -1l3 0c0,-1 0,-1 -1,-1 0,0 0,-1 -1,-1 0,0 0,1 -1,1 0,0 0,0 0,1zm4 -2l4 0 0 0 -2 0 0 5 -1 0 0 -5 -1 0 0 0zm8 4c-1,0 -1,0 -1,1 -1,0 -1,0 -1,0 -1,0 -1,0 -1,-1 -1,0 -1,0 -1,-1 0,0 0,0 0,0 0,0 1,-1 1,-1 0,0 0,0 0,0 0,0 1,0 1,0 1,0 1,0 1,0 0,-1 0,-1 0,-1 0,0 0,0 0,0 0,-1 0,-1 -1,-1 0,0 0,0 -1,1 0,0 0,0 0,0l-1 0c0,0 0,0 1,-1 0,0 0,0 0,0 1,0 1,0 1,0 1,0 1,0 1,0 1,0 1,0 1,0 0,0 0,1 0,1 0,0 0,0 0,1l0 1c0,0 0,1 0,1 0,0 0,0 1,1l-1 0c0,-1 0,-1 0,-1zm-1 -2c0,0 0,0 -1,1 0,0 0,0 -1,0 0,0 0,0 0,0 0,0 0,0 0,0 0,1 0,1 0,1 0,0 1,0 1,0 0,0 1,0 1,0 0,0 0,0 0,-1 0,0 0,0 0,0l0 -1zm-124 13l0 -7 2 0c1,0 1,0 2,1 0,0 0,0 0,0 1,0 1,1 1,1 0,0 0,1 -1,1 0,0 0,0 0,0 0,1 0,1 1,1 0,0 0,1 0,1 0,0 0,1 0,1 0,0 0,0 -1,1 0,0 0,0 0,0 -1,0 -1,0 -1,0l-3 0zm1 -4l1 0c1,0 1,0 1,0 0,0 1,0 1,0 0,0 0,-1 0,-1 0,0 0,0 0,0 0,-1 -1,-1 -1,-1 0,0 0,0 -1,0l-1 0 0 2zm0 3l2 0c0,0 0,0 0,0 0,0 0,0 1,0 0,0 0,0 0,0 0,-1 0,-1 0,-1 0,0 0,0 0,-1 0,0 0,0 -1,0 0,0 0,0 -1,0l-1 0 0 2zm10 -4l0 0 0 5 0 0 0 -5zm-5 0l1 0 0 2 1 0c1,0 1,0 2,0 0,1 0,1 0,2 0,0 0,0 0,1 -1,0 -1,0 -2,0l-2 0 0 -5zm1 4l1 0c0,0 1,0 1,0 0,0 0,0 0,0 0,-1 0,-1 0,-1 0,0 -1,0 -1,0l-1 0 0 1zm5 1l2 -3 -2 -2 1 0 1 1c0,1 0,1 0,1 1,0 1,-1 1,-1l1 -1 1 0 -2 2 2 3 -1 0 -1 -2 -1 0 -1 2 -1 0zm5 -2c0,-1 0,-2 1,-2 0,-1 1,-1 1,-1 1,0 1,0 2,1 0,0 0,1 0,1 0,1 0,2 0,2 0,0 0,1 -1,1 0,0 0,0 -1,0 0,0 -1,0 -1,-1 -1,0 -1,-1 -1,-1zm1 0c0,0 0,1 0,1 0,0 1,0 1,0 1,0 1,0 1,0 1,0 1,-1 1,-1 0,-1 0,-1 -1,-2 0,0 0,0 -1,0 0,0 -1,0 -1,0 0,0 0,1 0,2zm5 -3l3 0 0 4 1 0 0 2 -1 0 0 -1 -4 0 0 1 0 0 0 -2 0 0c1,0 1,-2 1,-4zm1 1c-1,1 -1,3 -1,3l2 0 0 -3 -1 0zm4 -1l0 0 0 4 3 -4 1 0 0 5 -1 0 0 -4 -2 4 -1 0 0 -5zm4 0l4 0 0 1 -1 0 0 4 -1 0 0 -4 -2 0 0 -1zm11 3l1 0c-1,1 -1,1 -1,2 0,0 -1,0 -1,0 -1,0 -2,0 -2,-1 0,0 -1,-1 -1,-1 0,-1 0,-1 1,-2 0,0 0,0 0,-1 1,0 1,0 2,0 0,0 1,0 1,0 0,1 0,1 0,2l0 0c0,-1 -1,-1 -1,-1 0,0 0,0 0,0 -1,0 -1,0 -1,0 -1,0 -1,1 -1,2 0,0 0,1 1,1 0,0 0,0 1,0 0,0 0,0 0,0 1,0 1,0 1,-1zm8 1l0 1 -5 0c0,0 1,0 1,-1 0,0 0,0 0,0 0,-1 1,-1 1,-1 1,-1 1,-2 2,-2 0,0 0,-1 0,-1 0,0 0,0 0,-1 -1,0 -1,0 -1,0 -1,0 -1,0 -1,0 0,1 -1,1 -1,1l0 0c0,0 0,-1 0,-1 1,-1 1,-1 2,-1 0,0 1,0 1,1 1,0 1,1 1,1 0,0 0,1 0,1 0,0 -1,0 -1,1 0,0 -1,0 -1,1 -1,0 -1,1 -1,1 0,0 0,0 0,0l3 0z"/>
   <path class="fil0" d="M52 14c0,-1 0,-2 0,-2 0,-1 0,-1 1,-1 0,-1 0,-1 1,-1 0,0 1,0 1,1 0,0 0,0 1,0 0,0 0,1 0,1 0,1 0,1 0,2 0,0 0,1 0,2 0,0 -1,0 -1,1 0,0 -1,0 -1,0 -1,0 -1,0 -2,-1 0,0 0,-1 0,-2zm1 0c0,1 0,2 0,2 0,0 1,0 1,0 0,0 1,0 1,0 0,0 0,-1 0,-2 0,-1 0,-2 0,-2 0,-1 -1,-1 -1,-1 0,0 -1,0 -1,0 0,1 0,2 0,3zm7 -2l1 0 0 4 2 -4 1 0 0 5 -1 0 0 -4 -2 4 -1 0 0 -5zm5 0l1 0 0 2 1 0c0,-1 0,-1 0,-1 1,-1 1,-1 2,-1 0,0 1,0 1,0 0,1 0,1 1,1 0,1 0,1 0,2 0,0 0,1 -1,1 0,1 -1,1 -1,1 -1,0 -1,0 -2,-1 0,0 0,0 0,-1l-1 0 0 2 -1 0 0 -5zm4 1c-1,0 -1,0 -1,0 0,1 -1,1 -1,1 0,1 1,2 1,2 0,0 0,0 1,0 0,0 0,0 1,0 0,0 0,-1 0,-1 0,-1 0,-1 0,-2 -1,0 -1,0 -1,0zm3 -1l4 0 0 5 -1 0 0 -4 -2 0 0 2c0,1 0,1 0,1 0,1 0,1 -1,1 0,0 0,0 0,0 0,0 -1,0 -1,0l0 -1 0 0c1,0 1,0 1,0 0,0 0,0 0,0 0,0 0,0 0,-1l0 -3zm9 0l0 5 -1 0 0 -2 0 0c-1,0 -1,0 -1,0 0,0 0,1 -1,1l0 1 -1 0 0 -1c1,-1 1,-1 1,-1 0,0 -1,0 -1,0 0,-1 0,-1 0,-1 0,-1 0,-1 0,-1 1,-1 1,-1 2,-1l2 0zm-1 1l-1 0c-1,0 -1,0 -1,0 0,0 0,0 0,1 0,0 0,0 0,0 0,0 1,0 1,0l1 0 0 -1zm7 4l0 0 0 -5c-1,0 -1,0 -1,0 0,1 -1,1 -1,1l0 -1c0,0 1,0 1,-1 1,0 1,0 1,-1l0 0 0 7zm3 -2l0 0c0,1 1,1 1,1 0,0 0,0 1,0 0,0 0,0 0,0 0,0 1,0 1,0 0,0 0,-1 0,-1 0,0 0,-1 0,-1 0,0 0,0 0,0 0,0 0,0 -1,0 0,1 0,1 -1,1 0,0 -1,0 -1,-1 0,0 0,-1 0,-1 0,-1 0,-2 0,-2 1,0 1,-1 2,-1 0,0 0,0 1,1 0,0 0,0 1,1 0,0 0,1 0,2 0,0 0,1 0,2 -1,0 -1,0 -1,1 -1,0 -1,0 -2,0 0,0 0,0 -1,0 0,-1 0,-1 0,-2zm3 -2c0,-1 0,-1 0,-2 -1,0 -1,0 -1,0 -1,0 -1,0 -1,0 -1,1 -1,1 -1,2 0,0 0,0 1,1 0,0 0,0 1,0 0,0 0,0 1,0 0,-1 0,-1 0,-1zm2 2l0 0c1,1 1,1 1,1 0,0 0,0 1,0 0,0 0,0 1,0 0,0 0,-1 0,-1 0,0 0,-1 0,-1 0,0 -1,0 -1,0 0,0 -1,0 -1,0l0 -1c0,0 0,0 0,0 1,0 1,0 1,0 1,0 1,-1 1,-1 0,0 0,-1 0,-1 -1,0 -1,0 -1,0 -1,0 -1,0 -1,0 0,0 0,1 0,1l-1 0c0,-1 0,-1 0,-1 1,-1 1,-1 2,-1 0,0 0,0 1,1 0,0 0,0 0,0 1,0 1,1 1,1 0,0 0,1 -1,1 0,0 0,0 0,0 0,0 0,1 1,1 0,0 0,1 0,1 0,1 0,1 -1,1 0,1 -1,1 -1,1 -1,0 -1,0 -2,0 0,-1 0,-1 0,-2zm9 1l0 1 -4 0c0,0 0,0 0,-1 0,0 0,0 0,0 1,-1 1,-1 1,-1 1,-1 2,-2 2,-2 0,0 0,-1 0,-1 0,0 0,0 0,-1 0,0 -1,0 -1,0 0,0 -1,0 -1,0 0,1 0,1 0,1l-1 0c0,0 0,-1 0,-1 1,-1 1,-1 2,-1 1,0 1,0 2,1 0,0 0,1 0,1 0,0 0,1 0,1 0,0 0,0 -1,1 0,0 0,0 -1,1 0,0 -1,1 -1,1 0,0 0,0 0,0l3 0zm4 -4l3 0 0 1 -2 0 0 4 -1 0 0 -5zm3 3c0,-1 0,-2 0,-2 1,-1 1,-1 2,-1 1,0 1,0 1,1 1,0 1,1 1,1 0,1 0,2 0,2 0,0 -1,1 -1,1 0,0 -1,0 -1,0 -1,0 -1,0 -2,-1 0,0 0,-1 0,-1zm0 0c0,0 1,1 1,1 0,0 0,0 1,0 0,0 1,0 1,0 0,0 0,-1 0,-1 0,-1 0,-1 0,-2 0,0 -1,0 -1,0 -1,0 -1,0 -1,0 0,0 -1,1 -1,2zm6 -3l3 0 0 4 0 0 0 2 0 0 0 -1 -4 0 0 1 -1 0 0 -2 1 0c0,0 1,-2 1,-4zm0 1c0,1 0,3 -1,3l3 0 0 -3 -2 0zm7 3c0,1 0,1 0,1 -1,0 -1,0 -1,0 -1,0 -1,0 -2,0 0,-1 0,-1 0,-1 0,-1 0,-1 0,-1 0,0 0,0 1,0 0,-1 0,-1 0,-1 0,0 1,0 1,0 1,0 1,0 1,0 0,0 0,0 0,0 0,-1 0,-1 0,-1 0,0 0,0 -1,0 0,0 0,0 -1,0 0,0 0,0 0,1l-1 0c0,-1 0,-1 0,-1 1,0 1,-1 1,-1 1,0 1,0 1,0 1,0 1,0 1,0 1,0 1,0 1,1 0,0 0,0 0,0 0,0 0,1 0,1l0 1c0,1 0,1 0,1 0,1 0,1 0,1l0 0c-1,0 -1,0 -1,-1zm0 -1c0,0 0,0 -1,0 0,0 -1,0 -1,0 0,0 0,0 0,0 0,0 0,1 0,1 0,0 0,0 0,0 0,0 1,0 1,0 0,0 0,0 1,0 0,0 0,0 0,0 0,-1 0,-1 0,-1l0 0z"/>
  </g>
 </g>
</svg>
