<?xml version="1.0" encoding="utf-8"?>
<!-- Generator: Adobe Illustrator 15.1.0, SVG Export Plug-In . SVG Version: 6.00 Build 0)  -->
<!DOCTYPE svg PUBLIC "-//W3C//DTD SVG 1.1//EN" "http://www.w3.org/Graphics/SVG/1.1/DTD/svg11.dtd">
<svg version="1.1" id="Layer_1" xmlns="http://www.w3.org/2000/svg" xmlns:xlink="http://www.w3.org/1999/xlink" x="0px" y="0px"
	 width="148px" height="148px" viewBox="0 0 148 148" enable-background="new 0 0 148 148" xml:space="preserve">
<g>
	<g>
		<g>
			<path fill="#00A0E3" d="M30.145,104.021c-2.7,0-4.888,2.188-4.888,4.889c0,2.697,2.188,4.89,4.888,4.89
				c2.701,0,4.889-2.19,4.889-4.89C35.033,106.21,32.846,104.021,30.145,104.021z"/>
			<path fill="#00A0E3" d="M118.135,104.021c-2.701,0-4.889,2.188-4.889,4.889c0,2.697,2.188,4.89,4.889,4.89
				c2.7,0,4.889-2.19,4.889-4.89C123.021,106.21,120.835,104.021,118.135,104.021z"/>
			<path fill="#00A0E3" d="M62.83,15.553c1.269,0.948,1.586,1.669,1.572,1.945c-0.015,0.265-0.362,0.765-1.296,1.326
				c-1.155,0.694-1.534,2.194-0.838,3.351c0.457,0.768,1.266,1.19,2.098,1.19c0.427,0,0.86-0.112,1.253-0.35
				c2.895-1.733,3.591-3.82,3.664-5.267c0.078-1.53-0.474-3.833-3.536-6.119c-0.034-0.027-0.079-0.029-0.115-0.054
				c-0.039-0.026-0.061-0.067-0.1-0.092c-0.863-0.51-1.19-0.973-1.208-1.216c-0.02-0.295,0.286-1.073,1.574-2.111
				c1.051-0.848,1.215-2.386,0.367-3.438c-0.843-1.051-2.385-1.216-3.436-0.369c-2.995,2.417-3.491,4.745-3.38,6.271
				C59.548,11.987,60.234,13.933,62.83,15.553z"/>
			<path fill="#00A0E3" d="M52.49,24.622c0.458,0.763,1.269,1.185,2.098,1.185c0.427,0,0.862-0.112,1.256-0.347
				c1.158-0.694,1.532-2.198,0.838-3.354L49.35,9.886c-0.691-1.158-2.194-1.535-3.354-0.838c-1.159,0.694-1.533,2.195-0.838,3.354
				L52.49,24.622z"/>
			<path fill="#00A0E3" d="M72.882,25.46c0.394,0.238,0.829,0.35,1.256,0.35c0.833,0,1.641-0.423,2.098-1.188l7.332-12.221
				c0.692-1.156,0.32-2.659-0.838-3.353c-1.155-0.696-2.66-0.32-3.354,0.837l-7.333,12.222
				C71.349,23.265,71.723,24.765,72.882,25.46z"/>
			<path fill="#00A0E3" d="M76.583,67.359h38.759c-0.724-0.836-1.406-1.713-1.992-2.666l-4.375-7.11H76.583V67.359z"/>
			<rect x="39.921" y="57.583" fill="#00A0E3" width="31.774" height="9.776"/>
			<path fill="#00A0E3" d="M135.244,86.912h12.221V80.85c0-3.396-2.763-6.158-6.156-6.158h-10.07c-3.43,0-6.758-0.882-9.729-2.442
				H39.501c-2.464,0-4.468-2.004-4.468-4.468V57.162c0-2.463,2.004-4.468,4.468-4.468h66.464l-1.056-1.716
				c-3.062-4.972-8.591-8.061-14.429-8.061H76.583v-2.445c0-6.739-5.481-12.22-12.22-12.22c-6.739,0-12.221,5.481-12.221,12.22
				v2.445H40.696c-5.844,0-11.375,3.094-14.435,8.075L14.106,70.779c-1.479,2.416-4.163,3.913-7.112,3.913
				c-1.665,0-3.227,0.646-4.395,1.814C1.44,77.669,0.8,79.217,0.802,80.859l0.002,3.607h12.23c1.352,0,2.444,1.094,2.444,2.444
				c0,1.354-1.092,2.442-2.444,2.442H0.807l0.008,13.461c0,4.707,3.835,8.537,8.552,8.537h3.864
				c1.192,8.274,8.313,14.664,16.914,14.664s15.721-6.39,16.914-14.664h54.164c1.192,8.274,8.313,14.664,16.914,14.664
				c8.602,0,15.721-6.39,16.913-14.664h2.536c5.449,0,9.88-4.432,9.88-9.879V91.8h-12.219c-1.353,0-2.446-1.093-2.446-2.444
				C132.799,88.005,133.893,86.912,135.244,86.912z M57.03,40.473c0-4.042,3.29-7.332,7.333-7.332c4.043,0,7.332,3.291,7.332,7.332
				v2.445H57.03V40.473L57.03,40.473z M30.145,121.131c-6.739,0-12.221-5.48-12.221-12.221c0-6.738,5.482-12.223,12.221-12.223
				s12.221,5.482,12.221,12.223C42.365,115.648,36.883,121.131,30.145,121.131z M88.805,86.912c0,1.354-1.092,2.445-2.443,2.445
				c-1.353,0-2.443-1.092-2.443-2.445v-2.443H74.14c-1.351,0-2.444-1.092-2.444-2.443c0-1.351,1.093-2.442,2.444-2.442h12.221
				c1.352,0,2.443,1.093,2.443,2.442V86.912L88.805,86.912z M118.135,121.131c-6.738,0-12.222-5.48-12.222-12.221
				c0-6.738,5.483-12.223,12.222-12.223c6.739,0,12.221,5.482,12.221,12.223C130.355,115.648,124.873,121.131,118.135,121.131z"/>
		</g>
	</g>
</g>
</svg>
