<?xml version="1.0" encoding="utf-8"?>
<!-- Generator: Adobe Illustrator 15.1.0, SVG Export Plug-In . SVG Version: 6.00 Build 0)  -->
<!DOCTYPE svg PUBLIC "-//W3C//DTD SVG 1.1//EN" "http://www.w3.org/Graphics/SVG/1.1/DTD/svg11.dtd">
<svg version="1.1" id="_x31_" xmlns="http://www.w3.org/2000/svg" xmlns:xlink="http://www.w3.org/1999/xlink" x="0px" y="0px"
	 width="128px" height="32px" viewBox="0 0 128 32" enable-background="new 0 0 128 32" xml:space="preserve">
<rect x="95.999" opacity="0.5" fill-rule="evenodd" clip-rule="evenodd" fill="#808080" width="32.001" height="32"/>
<rect x="64" fill-rule="evenodd" clip-rule="evenodd" fill="#001E32" width="32" height="32"/>
<rect x="32" opacity="0.8" fill-rule="evenodd" clip-rule="evenodd" fill="#001E32" width="32" height="32"/>
<rect opacity="0.6" fill-rule="evenodd" clip-rule="evenodd" fill="#001E32" width="32" height="32"/>
<polygon fill-rule="evenodd" clip-rule="evenodd" fill="#FFFFFF" points="108.046,26.03 118.076,15.999 108.046,5.969 105.923,8.09 
	113.833,15.999 105.923,23.909 "/>
<polygon fill-rule="evenodd" clip-rule="evenodd" fill="#FFFFFF" points="76.046,26.03 86.076,15.999 76.046,5.969 73.924,8.09 
	81.834,15.999 73.924,23.909 "/>
<polygon fill-rule="evenodd" clip-rule="evenodd" fill="#FFFFFF" points="44.046,26.03 54.076,15.999 44.046,5.969 41.924,8.09 
	49.833,15.999 41.924,23.909 "/>
<polygon fill-rule="evenodd" clip-rule="evenodd" fill="#FFFFFF" points="12.045,26.03 22.075,15.999 12.045,5.969 9.924,8.09 
	17.833,15.999 9.924,23.909 "/>
</svg>
