<?xml version="1.0" encoding="utf-8"?>
<!-- Generator: Adobe Illustrator 15.1.0, SVG Export Plug-In . SVG Version: 6.00 Build 0)  -->
<!DOCTYPE svg PUBLIC "-//W3C//DTD SVG 1.1//EN" "http://www.w3.org/Graphics/SVG/1.1/DTD/svg11.dtd">
<svg version="1.1" id="_x31_" xmlns="http://www.w3.org/2000/svg" xmlns:xlink="http://www.w3.org/1999/xlink" x="0px" y="0px"
	 width="128px" height="32px" viewBox="0 0 128 32" enable-background="new 0 0 128 32" xml:space="preserve">
<rect opacity="0.6" fill-rule="evenodd" clip-rule="evenodd" fill="#001E32" width="32" height="32"/>
<rect x="32" opacity="0.8" fill-rule="evenodd" clip-rule="evenodd" fill="#001E32" width="32" height="32"/>
<rect x="64" fill-rule="evenodd" clip-rule="evenodd" fill="#001E32" width="32" height="32"/>
<rect x="96" opacity="0.5" fill-rule="evenodd" clip-rule="evenodd" fill="#808080" width="32" height="32"/>
<polygon fill-rule="evenodd" clip-rule="evenodd" fill="#FFFFFF" points="19.955,26.03 9.925,16 19.955,5.969 22.076,8.09 
	14.167,16 22.076,23.909 "/>
<polygon fill-rule="evenodd" clip-rule="evenodd" fill="#FFFFFF" points="51.955,26.03 41.925,16 51.955,5.969 54.076,8.09 
	46.167,16 54.076,23.909 "/>
<polygon fill-rule="evenodd" clip-rule="evenodd" fill="#FFFFFF" points="83.955,26.03 73.924,16 83.955,5.969 86.076,8.09 
	78.167,16 86.076,23.909 "/>
<polygon fill-rule="evenodd" clip-rule="evenodd" fill="#FFFFFF" points="115.955,26.03 105.924,16 115.955,5.969 118.076,8.09 
	110.166,16 118.076,23.909 "/>
</svg>
