<?xml version="1.0" encoding="utf-8"?>
<!-- Generator: Adobe Illustrator 15.1.0, SVG Export Plug-In . SVG Version: 6.00 Build 0)  -->
<!DOCTYPE svg PUBLIC "-//W3C//DTD SVG 1.1//EN" "http://www.w3.org/Graphics/SVG/1.1/DTD/svg11.dtd">
<svg version="1.1" id="Header" xmlns="http://www.w3.org/2000/svg" xmlns:xlink="http://www.w3.org/1999/xlink" x="0px" y="0px"
	 width="148px" height="296.001px" viewBox="0 0 148 296.001" enable-background="new 0 0 148 296.001" xml:space="preserve">
<path fill-rule="evenodd" clip-rule="evenodd" fill="#999999" d="M77.213,112.007V75.933h12.108l1.814-14.058H77.213v-8.977
	c0-4.071,1.128-6.843,6.965-6.843l7.447-0.004V33.477c-1.288-0.172-5.709-0.554-10.848-0.554c-10.735,0-18.082,6.552-18.082,18.584
	v10.368H50.555v14.058h12.141v36.075H77.213L77.213,112.007z"/>
<path fill-rule="evenodd" clip-rule="evenodd" fill="#FFFFFF" d="M77.213,260.008v-36.075h12.108l1.814-14.058H77.213v-8.977
	c0-4.071,1.128-6.843,6.965-6.843l7.447-0.004v-12.574c-1.288-0.172-5.709-0.554-10.848-0.554c-10.735,0-18.082,6.552-18.082,18.584
	v10.368H50.555v14.058h12.141v36.075H77.213L77.213,260.008z"/>
</svg>
