<?xml version="1.0" encoding="utf-8"?>
<!-- Generator: Adobe Illustrator 15.1.0, SVG Export Plug-In . SVG Version: 6.00 Build 0)  -->
<!DOCTYPE svg PUBLIC "-//W3C//DTD SVG 1.0//EN" "http://www.w3.org/TR/2001/REC-SVG-20010904/DTD/svg10.dtd">
<svg version="1.0" id="Header" xmlns="http://www.w3.org/2000/svg" xmlns:xlink="http://www.w3.org/1999/xlink" x="0px" y="0px"
	 width="102px" height="204px" viewBox="0 0 102 204" style="enable-background:new 0 0 102 204;" xml:space="preserve">
<rect style="fill-rule:evenodd;clip-rule:evenodd;fill:#CBCBCB;" width="102" height="102"/>
<g>
	<path style="fill-rule:evenodd;clip-rule:evenodd;fill:#999999;" d="M26.166,57.957c-7.34,0-13.29-5.978-13.29-13.353
		c0-7.375,5.95-13.352,13.29-13.352c7.341,0,13.292,5.977,13.292,13.352C39.458,51.979,33.507,57.957,26.166,57.957L26.166,57.957z
		 M26.166,54.835c2.81,0,5.356-1.146,7.202-2.999c1.843-1.852,2.982-4.41,2.982-7.233s-1.14-5.379-2.985-7.232
		c-1.843-1.853-4.39-2.998-7.199-2.998c-2.808,0-5.354,1.146-7.199,3c-1.841,1.852-2.981,4.408-2.981,7.23s1.141,5.381,2.984,7.236
		C20.813,53.689,23.358,54.835,26.166,54.835L26.166,54.835z M20.041,50.759c1.568,1.572,3.733,2.546,6.125,2.546
		c2.394,0,4.561-0.974,6.127-2.546c1.567-1.574,2.535-3.75,2.535-6.155c0-2.403-0.968-4.578-2.535-6.153
		c-1.566-1.572-3.733-2.546-6.127-2.546c-2.392,0-4.557,0.974-6.125,2.546c-1.564,1.575-2.533,3.75-2.533,6.153
		C17.508,47.008,18.477,49.185,20.041,50.759z"/>
	<path style="fill-rule:evenodd;clip-rule:evenodd;fill:#999999;" d="M61.279,57.957c-7.341,0-13.292-5.978-13.292-13.353
		c0-7.375,5.951-13.352,13.292-13.352s13.29,5.977,13.29,13.352C74.569,51.979,68.62,57.957,61.279,57.957L61.279,57.957z
		 M61.279,54.836c2.808,0,5.354-1.146,7.199-3c1.844-1.851,2.983-4.408,2.983-7.232c0-2.822-1.14-5.379-2.986-7.233
		c-1.843-1.853-4.389-2.998-7.196-2.998c-2.811,0-5.357,1.146-7.203,3c-1.841,1.851-2.981,4.409-2.981,7.23
		c0,2.824,1.141,5.381,2.985,7.236C55.922,53.69,58.469,54.836,61.279,54.836L61.279,54.836z M55.152,50.759
		c1.567,1.572,3.733,2.547,6.127,2.547c2.392,0,4.557-0.976,6.125-2.547c1.563-1.574,2.534-3.75,2.534-6.155
		c0-2.403-0.971-4.579-2.534-6.153c-1.568-1.573-3.733-2.547-6.125-2.547c-2.394,0-4.56,0.974-6.127,2.547
		c-1.564,1.574-2.532,3.75-2.532,6.153C52.62,47.01,53.588,49.185,55.152,50.759z"/>
	<path style="fill-rule:evenodd;clip-rule:evenodd;fill:#999999;" d="M39.426,42.495c-0.514,0.664-1.469,0.78-2.128,0.263
		c-0.663-0.519-0.778-1.477-0.263-2.14c0.813-1.045,1.852-1.899,3.041-2.481c1.148-0.563,2.44-0.881,3.804-0.881
		c1.361,0,2.652,0.318,3.804,0.881c1.188,0.583,2.227,1.436,3.041,2.481c0.513,0.663,0.396,1.621-0.264,2.14
		c-0.659,0.517-1.612,0.4-2.128-0.263c-0.522-0.672-1.201-1.226-1.979-1.608c-0.744-0.365-1.587-0.57-2.474-0.57
		c-0.889,0-1.729,0.205-2.475,0.57C40.625,41.269,39.95,41.822,39.426,42.495z"/>
	<path style="fill-rule:evenodd;clip-rule:evenodd;fill:#999999;" d="M16.56,41.085c-0.236,0.809-1.082,1.271-1.887,1.034
		c-0.805-0.236-1.265-1.085-1.029-1.895l4.701-16.029c1.253-4.256,4.167-6.418,7.161-6.878l0.058-0.007
		c1.16-0.17,2.335-0.083,3.425,0.242c1.121,0.333,2.162,0.914,3.027,1.716c2.069,1.927,3.125,5.077,1.835,9.072
		c-0.257,0.801-1.113,1.24-1.912,0.98c-0.796-0.261-1.232-1.122-0.974-1.921c0.866-2.686,0.252-4.714-1.012-5.893
		c-0.514-0.477-1.143-0.825-1.819-1.026c-0.678-0.201-1.405-0.255-2.124-0.151l-0.041,0.007c-1.936,0.298-3.841,1.777-4.709,4.721
		L16.56,41.085z"/>
	<path style="fill-rule:evenodd;clip-rule:evenodd;fill:#999999;" d="M74.509,45.963c-0.236,0.809-1.082,1.271-1.886,1.035
		c-0.805-0.239-1.264-1.087-1.027-1.896l6.128-20.908c1.254-4.256,4.166-6.418,7.163-6.878l0.053-0.007
		c1.164-0.17,2.338-0.083,3.43,0.242c1.12,0.333,2.161,0.914,3.023,1.716c2.071,1.927,3.124,5.077,1.837,9.072
		c-0.261,0.801-1.118,1.24-1.913,0.98c-0.799-0.261-1.235-1.122-0.975-1.921c0.866-2.686,0.255-4.714-1.014-5.893
		c-0.514-0.477-1.14-0.825-1.819-1.026c-0.673-0.201-1.4-0.255-2.12-0.151l-0.044,0.007c-1.933,0.298-3.841,1.777-4.707,4.721
		L74.509,45.963z"/>
</g>
<text transform="matrix(1 0 0 1 12.543 75.3584)"><tspan x="0" y="0" style="fill:#999999; font-family:'MyriadPro-Regular'; font-size:12.2969;">Версия для</tspan><tspan x="0" y="14.756" style="fill:#999999; font-family:'MyriadPro-Regular'; font-size:12.2969;">слабовидящих</tspan></text>
</svg>
