<?xml version="1.0" encoding="utf-8"?>
<!-- Generator: Adobe Illustrator 15.1.0, SVG Export Plug-In . SVG Version: 6.00 Build 0)  -->
<!DOCTYPE svg PUBLIC "-//W3C//DTD SVG 1.1//EN" "http://www.w3.org/Graphics/SVG/1.1/DTD/svg11.dtd">
<svg version="1.1" id="Main" xmlns="http://www.w3.org/2000/svg" xmlns:xlink="http://www.w3.org/1999/xlink" x="0px" y="0px"
	 width="20px" height="20px" viewBox="0 -8.093 20 20" enable-background="new 0 -8.093 20 20" xml:space="preserve">
<path fill="#808080" d="M0.775,1.574C2.617-1.608,6.057-3.75,10-3.75c3.941,0,7.383,2.143,9.224,5.324
	C17.383,4.757,13.941,6.898,10,6.898C6.057,6.898,2.617,4.757,0.775,1.574L0.775,1.574z M9.839,3.07c0.851,0,1.54-0.689,1.54-1.54
	s-0.689-1.54-1.54-1.54c-0.852,0-1.54,0.689-1.54,1.54S8.987,3.07,9.839,3.07L9.839,3.07z M9.839,5.384
	c2.129,0,3.854-1.726,3.854-3.854s-1.726-3.854-3.854-3.854S5.984-0.598,5.984,1.53S7.711,5.384,9.839,5.384z"/>
</svg>
