<?xml version="1.0" encoding="utf-8"?>
<!-- Generator: Adobe Illustrator 15.1.0, SVG Export Plug-In . SVG Version: 6.00 Build 0)  -->
<!DOCTYPE svg PUBLIC "-//W3C//DTD SVG 1.1//EN" "http://www.w3.org/Graphics/SVG/1.1/DTD/svg11.dtd">
<svg version="1.1" id="Header" xmlns="http://www.w3.org/2000/svg" xmlns:xlink="http://www.w3.org/1999/xlink" x="0px" y="0px"
	 width="48px" height="48px" viewBox="0 0 48 48" enable-background="new 0 0 48 48" xml:space="preserve">
<path fill-rule="evenodd" clip-rule="evenodd" fill="#808080" d="M5.758,12.387h38.032c1.582,0,2.875,1.292,2.875,2.875v21.669
	c0,1.582-1.292,2.875-2.875,2.875H5.758c-1.582,0-2.875-1.292-2.875-2.875V15.261C2.883,13.679,4.177,12.387,5.758,12.387z"/>
<path fill-rule="evenodd" clip-rule="evenodd" fill="#E6E6E6" d="M4.209,10.157h38.032c1.582,0,2.875,1.293,2.875,2.875v21.67
	c0,1.581-1.293,2.874-2.875,2.874H4.209c-1.582,0-2.875-1.292-2.875-2.874v-21.67C1.334,11.451,2.627,10.157,4.209,10.157z"/>
<polygon fill-rule="evenodd" clip-rule="evenodd" fill="#666666" points="2.883,35.844 23.226,19.007 43.568,35.844 "/>
<polygon fill-rule="evenodd" clip-rule="evenodd" fill="#CCCCCC" points="2.883,35.844 23.226,21.265 43.568,35.844 "/>
<g>
	<defs>
		<polygon id="SVGID_1_" points="2.883,11.915 23.226,30.928 43.568,11.915 		"/>
	</defs>
	<clipPath id="SVGID_2_">
		<use xlink:href="#SVGID_1_"  overflow="visible"/>
	</clipPath>
	<path opacity="0.22" clip-path="url(#SVGID_2_)" fill-rule="evenodd" clip-rule="evenodd" d="M4.209,11.371h38.032
		c1.582,0,2.875,1.26,2.875,2.801v21.114c0,1.541-1.293,2.799-2.875,2.799H4.209c-1.582,0-2.875-1.259-2.875-2.799V14.172
		C1.334,12.631,2.627,11.371,4.209,11.371z"/>
</g>
<polygon fill-rule="evenodd" clip-rule="evenodd" fill="#FFFFFF" points="2.883,11.863 23.226,26.35 43.568,11.863 "/>
</svg>
