<?xml version="1.0" encoding="utf-8"?>
<!-- Generator: Adobe Illustrator 15.1.0, SVG Export Plug-In . SVG Version: 6.00 Build 0)  -->
<!DOCTYPE svg PUBLIC "-//W3C//DTD SVG 1.1//EN" "http://www.w3.org/Graphics/SVG/1.1/DTD/svg11.dtd">
<svg version="1.1" id="Capa_1" xmlns="http://www.w3.org/2000/svg" xmlns:xlink="http://www.w3.org/1999/xlink" x="0px" y="0px"
	 width="148px" height="148px" viewBox="0 0 148 148" enable-background="new 0 0 148 148" xml:space="preserve">
<path fill="#00A0E3" d="M0.445,37.276h15.033V61H0.445V37.276z M18.744,113.622h16.492v21.821H18.744V113.622z M132.523,37.276
	h15.031V61h-15.031V37.276z M129.26,25.44H18.744v46.93l-5.772,5.987v32.521h122.055V78.357l-5.769-5.979
	C129.26,72.375,129.26,25.44,129.26,25.44z M27.3,29.164h44.071v8.112h-8.198v4.561h8.198v20.065H27.3V29.164z M38.215,100.516
	c-5.108,0-9.245-4.142-9.245-9.248c0-5.104,4.137-9.252,9.245-9.252c5.119,0,9.26,4.147,9.26,9.252
	C47.476,96.375,43.334,100.516,38.215,100.516z M91.617,97.432H56.383v-3.463h35.233L91.617,97.432L91.617,97.432z M91.617,90.936
	H56.383v-3.47h35.233L91.617,90.936L91.617,90.936z M91.617,83.828H56.383v-3.461h35.233L91.617,83.828L91.617,83.828z
	 M109.789,100.516c-5.118,0-9.26-4.142-9.26-9.248c0-5.104,4.142-9.252,9.26-9.252c5.107,0,9.245,4.147,9.245,9.252
	C119.034,96.375,114.893,100.516,109.789,100.516z M120.706,61.896H76.629v-20.06h8.203v-4.561h-8.203v-8.112h44.076L120.706,61.896
	L120.706,61.896z M112.764,113.622h16.491v21.821h-16.491V113.622z M129.266,20.961v-8.605c0,0-11.771-10.05-20.189-10.05
	c-4.158,0-65.983,0-70.145,0c-8.425,0-20.191,10.05-20.191,10.05v8.605H129.266z M116.674,8.963c2.396,0,4.328,1.943,4.328,4.323
	c0,2.406-1.938,4.343-4.328,4.343c-2.404,0-4.337-1.937-4.337-4.343C112.336,10.911,114.273,8.963,116.674,8.963z M102.266,8.963
	c2.396,0,4.338,1.943,4.338,4.323c0,2.406-1.949,4.343-4.338,4.343c-2.386,0-4.338-1.937-4.338-4.343
	C97.923,10.911,99.88,8.963,102.266,8.963z M31.326,17.634c-2.391,0-4.328-1.938-4.328-4.343c0-2.38,1.938-4.324,4.328-4.324
	c2.401,0,4.343,1.944,4.343,4.324C35.669,15.696,33.731,17.634,31.326,17.634z M45.739,17.634c-2.39,0-4.343-1.938-4.343-4.343
	c0-2.38,1.953-4.324,4.343-4.324c2.386,0,4.338,1.944,4.338,4.324C50.077,15.696,48.125,17.634,45.739,17.634z"/>
</svg>
