<?xml version="1.0" encoding="utf-8"?>
<!-- Generator: Adobe Illustrator 15.1.0, SVG Export Plug-In . SVG Version: 6.00 Build 0)  -->
<!DOCTYPE svg PUBLIC "-//W3C//DTD SVG 1.1//EN" "http://www.w3.org/Graphics/SVG/1.1/DTD/svg11.dtd">
<svg version="1.1" id="Capa_1" xmlns="http://www.w3.org/2000/svg" xmlns:xlink="http://www.w3.org/1999/xlink" x="0px" y="0px"
	 width="148px" height="148px" viewBox="0 0 148 148" enable-background="new 0 0 148 148" xml:space="preserve">
<path fill="#00A0E3" d="M144.951,77.754v-8.185h-30.674v3.019h-7.188v5.166h-1.263L76.168,52.515H71.77L42.11,77.754h-1.262v-5.166
	H33.93V40.361H2.917v37.393h-2.59v45.688h42.384v3.137h62.518v-3.137h42.383V77.754H144.951z M18.423,46.318
	c4.156,0,7.525,3.369,7.525,7.525c0,4.156-3.369,7.525-7.525,7.525c-4.156,0-7.525-3.369-7.525-7.525
	C10.898,49.687,14.267,46.318,18.423,46.318z M47.768,113.936h-5.057v3.137H6.7V84.127h41.068V113.936z M70.076,113.936H55.554
	V84.125h14.522V113.936z M92.384,113.936H77.861V84.125h14.521L92.384,113.936L92.384,113.936z M53.263,77.174l20.706-17.619
	l20.706,17.619H53.263z M141.238,117.068h-36.01v-3.133h-5.06V84.125h41.067v32.943H141.238z M13.583,88.049h7.436v25.098h-7.436
	V88.049z M31.491,88.049h7.436v25.098h-7.436V88.049z M109.012,88.049h7.437v25.098h-7.437V88.049z M126.919,88.049h7.437v25.098
	h-7.437V88.049z M18.423,26.214l6.617,10.815h8.89v-1.998L18.423,7.213L2.917,35.031v1.998h8.889L18.423,26.214z"/>
</svg>
