<?xml version="1.0" encoding="utf-8"?>
<!-- Generator: Adobe Illustrator 15.1.0, SVG Export Plug-In . SVG Version: 6.00 Build 0)  -->
<!DOCTYPE svg PUBLIC "-//W3C//DTD SVG 1.1//EN" "http://www.w3.org/Graphics/SVG/1.1/DTD/svg11.dtd">
<svg version="1.1" id="Capa_1" xmlns="http://www.w3.org/2000/svg" xmlns:xlink="http://www.w3.org/1999/xlink" x="0px" y="0px"
	 width="148px" height="148px" viewBox="0 0 148 148" enable-background="new 0 0 148 148" xml:space="preserve">
<g>
	<path fill="#00A0E3" d="M60.365,17.485H25.067V6.684c0-2.46-1.994-4.454-4.454-4.454c-2.459,0-4.452,1.994-4.452,4.454v11.195
		c-4.396,1.239-7.627,5.281-7.627,10.067v33.744c0,5.771,4.693,10.466,10.461,10.466h0.978v18.427
		c0,5.768,4.692,10.461,10.462,10.461h18.49c5.768,0,10.461-4.693,10.461-10.461V72.155h0.978c5.768,0,10.461-4.694,10.461-10.465
		V27.947C70.826,22.177,66.133,17.485,60.365,17.485z M51.12,56.01H28.241c-1.967,0-3.563-1.594-3.563-3.563
		c0-1.967,1.595-3.563,3.563-3.563H51.12c1.967,0,3.563,1.597,3.563,3.563C54.684,54.415,53.087,56.01,51.12,56.01z M51.12,40.757
		H28.241c-1.967,0-3.563-1.596-3.563-3.563c0-1.969,1.595-3.564,3.563-3.564H51.12c1.967,0,3.563,1.595,3.563,3.564
		C54.684,39.161,53.087,40.757,51.12,40.757z"/>
	<path fill="#00A0E3" d="M129.007,47.995H93.705v-10.8c0-2.461-1.993-4.455-4.453-4.455c-2.459,0-4.455,1.994-4.455,4.455v11.193
		c-4.395,1.241-7.623,5.283-7.623,10.07v33.744c0,5.77,4.691,10.465,10.46,10.465h0.977v18.428c0,5.77,4.694,10.463,10.463,10.463
		h18.489c5.769,0,10.46-4.693,10.46-10.463v-18.428h0.982c5.766,0,10.46-4.695,10.46-10.465V58.458
		C139.468,52.688,134.773,47.995,129.007,47.995z M119.762,86.521H96.881c-1.968,0-3.563-1.598-3.563-3.564
		c0-1.969,1.595-3.564,3.563-3.564h22.881c1.966,0,3.561,1.596,3.561,3.564C123.322,84.924,121.728,86.521,119.762,86.521z
		 M119.762,71.266H96.881c-1.968,0-3.563-1.595-3.563-3.563s1.595-3.563,3.563-3.563h22.881c1.966,0,3.561,1.594,3.561,3.563
		S121.728,71.266,119.762,71.266z"/>
</g>
</svg>
