<?xml version="1.0" encoding="utf-8"?>
<!-- Generator: Adobe Illustrator 15.1.0, SVG Export Plug-In . SVG Version: 6.00 Build 0)  -->
<!DOCTYPE svg PUBLIC "-//W3C//DTD SVG 1.1//EN" "http://www.w3.org/Graphics/SVG/1.1/DTD/svg11.dtd">
<svg version="1.1" id="Menu" xmlns="http://www.w3.org/2000/svg" xmlns:xlink="http://www.w3.org/1999/xlink" x="0px" y="0px"
	 width="23.07px" height="19.688px" viewBox="0 0 23.07 19.688" enable-background="new 0 0 23.07 19.688" xml:space="preserve">
<path fill-rule="evenodd" clip-rule="evenodd" fill="#FFFFFF" d="M1.125,2.25C0.504,2.25,0,1.747,0,1.125C0,0.504,0.504,0,1.125,0
	h20.82c0.621,0,1.125,0.504,1.125,1.125c0,0.622-0.504,1.125-1.125,1.125H1.125z"/>
<path fill-rule="evenodd" clip-rule="evenodd" fill="#FFFFFF" d="M1.125,11.063C0.504,11.063,0,10.56,0,9.938
	c0-0.622,0.504-1.126,1.125-1.126h20.82c0.621,0,1.125,0.504,1.125,1.126c0,0.621-0.504,1.125-1.125,1.125H1.125z"/>
<path fill-rule="evenodd" clip-rule="evenodd" fill="#FFFFFF" d="M1.125,19.688C0.504,19.688,0,19.184,0,18.563
	s0.504-1.125,1.125-1.125h20.82c0.621,0,1.125,0.504,1.125,1.125s-0.504,1.125-1.125,1.125H1.125z"/>
</svg>
