<?xml version="1.0" encoding="utf-8"?>
<!-- Generator: Adobe Illustrator 15.1.0, SVG Export Plug-In . SVG Version: 6.00 Build 0)  -->
<!DOCTYPE svg PUBLIC "-//W3C//DTD SVG 1.1//EN" "http://www.w3.org/Graphics/SVG/1.1/DTD/svg11.dtd">
<svg version="1.1" id="Header" xmlns="http://www.w3.org/2000/svg" xmlns:xlink="http://www.w3.org/1999/xlink" x="0px" y="0px"
	 width="148px" height="296.001px" viewBox="0 0 148 296.001" enable-background="new 0 0 148 296.001" xml:space="preserve">
<path fill-rule="evenodd" clip-rule="evenodd" fill="#999999" d="M73.257,100.028h5.497c0,0,1.662-0.183,2.513-1.096
	c0.779-0.841,0.755-2.417,0.755-2.417s-0.108-7.379,3.316-8.467c3.376-1.072,7.712,7.132,12.309,10.288
	c3.474,2.385,6.115,1.863,6.115,1.863l12.289-0.17c0,0,6.428-0.397,3.38-5.45c-0.253-0.414-1.778-3.74-9.138-10.573
	c-7.708-7.15-6.672-5.994,2.61-18.364c5.652-7.534,7.909-12.134,7.202-14.104c-0.671-1.875-4.83-1.381-4.83-1.381l-13.835,0.086
	c0,0-1.023-0.139-1.786,0.315c-0.743,0.446-1.221,1.486-1.221,1.486s-2.191,5.829-5.11,10.788
	c-6.159,10.46-8.624,11.014-9.632,10.364c-2.345-1.515-1.758-6.082-1.758-9.328c0-10.137,1.537-14.365-2.995-15.459
	c-1.502-0.363-2.61-0.604-6.456-0.642c-4.938-0.05-9.113,0.016-11.482,1.174c-1.573,0.771-2.786,2.487-2.047,2.587
	c0.915,0.123,2.986,0.558,4.083,2.052c1.417,1.929,1.368,6.261,1.368,6.261s0.815,11.934-1.902,13.417
	c-1.863,1.016-4.425-1.06-9.917-10.551c-2.814-4.862-4.938-10.236-4.938-10.236s-0.41-1.003-1.141-1.542
	c-0.887-0.652-2.124-0.857-2.124-0.857l-13.148,0.084c0,0-1.975,0.056-2.697,0.916c-0.646,0.763-0.053,2.34-0.053,2.34
	s10.29,24.083,21.949,36.217C61.121,100.758,73.257,100.028,73.257,100.028L73.257,100.028z M73.257,100.028L73.257,100.028
	L73.257,100.028z"/>
<path fill-rule="evenodd" clip-rule="evenodd" fill="#FFFFFF" d="M73.257,248.029h5.497c0,0,1.662-0.183,2.513-1.096
	c0.779-0.841,0.755-2.417,0.755-2.417s-0.108-7.379,3.316-8.467c3.376-1.072,7.712,7.132,12.309,10.288
	c3.474,2.385,6.115,1.863,6.115,1.863l12.289-0.17c0,0,6.428-0.397,3.38-5.45c-0.253-0.414-1.778-3.74-9.138-10.573
	c-7.708-7.15-6.672-5.994,2.61-18.364c5.652-7.534,7.909-12.134,7.202-14.104c-0.671-1.875-4.83-1.381-4.83-1.381l-13.835,0.086
	c0,0-1.023-0.139-1.786,0.315c-0.743,0.446-1.221,1.486-1.221,1.486s-2.191,5.829-5.11,10.788
	c-6.159,10.46-8.624,11.014-9.632,10.364c-2.345-1.515-1.758-6.082-1.758-9.328c0-10.137,1.537-14.365-2.995-15.459
	c-1.502-0.363-2.61-0.604-6.456-0.642c-4.938-0.05-9.113,0.016-11.482,1.174c-1.573,0.771-2.786,2.487-2.047,2.587
	c0.915,0.123,2.986,0.558,4.083,2.052c1.417,1.929,1.368,6.261,1.368,6.261s0.815,11.934-1.902,13.417
	c-1.863,1.016-4.425-1.06-9.917-10.551c-2.814-4.862-4.938-10.236-4.938-10.236s-0.41-1.003-1.141-1.542
	c-0.887-0.652-2.124-0.857-2.124-0.857l-13.148,0.084c0,0-1.975,0.056-2.697,0.916c-0.646,0.763-0.053,2.34-0.053,2.34
	s10.29,24.083,21.949,36.217C61.121,248.759,73.257,248.029,73.257,248.029L73.257,248.029z M73.257,248.029L73.257,248.029
	L73.257,248.029z"/>
</svg>
