<?xml version="1.0" encoding="utf-8"?>
<!-- Generator: Adobe Illustrator 15.1.0, SVG Export Plug-In . SVG Version: 6.00 Build 0)  -->
<!DOCTYPE svg PUBLIC "-//W3C//DTD SVG 1.1//EN" "http://www.w3.org/Graphics/SVG/1.1/DTD/svg11.dtd">
<svg version="1.1" xmlns="http://www.w3.org/2000/svg" xmlns:xlink="http://www.w3.org/1999/xlink" x="0px" y="0px" width="148px"
	 height="148px" viewBox="0 0 148 148" enable-background="new 0 0 148 148" xml:space="preserve">
<path fill-rule="evenodd" clip-rule="evenodd" fill="#666666" d="M73.957,86.731c-3.32,0-6.014-2.692-6.014-6.012
	s2.694-6.014,6.014-6.014s6.011,2.694,6.011,6.014S77.277,86.731,73.957,86.731L73.957,86.731z M145.923,75.835
	c-3.293-3.438-6.833-6.642-10.584-9.581l8.58-12.528c1.919-2.813,1.194-6.653-1.618-8.574c-2.815-1.919-6.656-1.194-8.574,1.621
	l-8.55,12.487c-3.795-2.281-7.75-4.31-11.849-6.073c-1.186-0.51-2.386-0.995-3.596-1.462l4.86-13.808
	c1.119-3.212-0.58-6.728-3.792-7.847c-3.215-1.122-6.731,0.577-7.85,3.792l-4.983,14.162c-5.749-1.422-11.693-2.346-17.782-2.719
	V30.328c0-3.417-2.767-6.183-6.183-6.183c-3.414,0-6.183,2.767-6.183,6.183v14.978c-6.089,0.373-12.037,1.296-17.785,2.719
	l-4.986-14.162c-1.119-3.215-4.635-4.914-7.85-3.792c-3.215,1.119-4.911,4.635-3.792,7.847l4.86,13.808
	c-1.21,0.464-2.408,0.953-3.594,1.462c-4.098,1.764-8.056,3.798-11.848,6.073l-8.553-12.487c-1.919-2.813-5.759-3.537-8.574-1.619
	c-2.813,1.919-3.537,5.759-1.618,8.575l8.58,12.527c-3.752,2.938-7.289,6.14-10.582,9.578L1.916,75.98
	c-1.208,1.148-1.846,2.667-1.908,4.21l-0.005,0.105L0,80.339v0.102v0.046v0.104l0.002,0.046l0.005,0.102
	c0.064,1.543,0.701,3.065,1.908,4.211l0.158,0.145c9.178,9.583,20.249,17.336,32.596,22.647c12.077,5.193,25.375,8.073,39.33,8.073
	c13.953,0,27.25-2.88,39.327-8.073c12.348-5.311,23.418-13.062,32.596-22.647l0.161-0.145c1.208-1.148,1.844-2.667,1.908-4.211
	l0.005-0.102v-0.046L148,80.486V80.44l-0.003-0.102v-0.043l-0.005-0.105c-0.064-1.543-0.703-3.064-1.908-4.21L145.923,75.835
	L145.923,75.835z M14.97,80.465c7.182-6.597,15.479-12.01,24.58-15.925c5.193-2.235,10.652-3.977,16.314-5.174
	c-0.583,0.497-1.144,1.012-1.686,1.551l-0.024,0.026c-5.067,5.078-8.204,12.071-8.204,19.773c0,7.7,3.137,14.696,8.204,19.773
	l0.024,0.024c0.303,0.303,0.612,0.596,0.929,0.883c-5.392-1.189-10.595-2.874-15.558-5.008
	C30.449,92.477,22.151,87.062,14.97,80.465L14.97,80.465z M92.772,101.424c0.325-0.295,0.644-0.598,0.955-0.91l0.024-0.024
	c5.067-5.077,8.204-12.074,8.204-19.773c0-7.702-3.137-14.696-8.204-19.773l-0.024-0.026c-0.55-0.548-1.122-1.074-1.715-1.576
	c5.706,1.197,11.205,2.95,16.435,5.198c9.101,3.916,17.401,9.329,24.583,15.925c-7.182,6.597-15.482,12.012-24.583,15.925
	C103.448,98.54,98.207,100.235,92.772,101.424L92.772,101.424z M62.897,91.798c2.813,2.813,6.723,4.554,11.057,4.554
	c4.332,0,8.242-1.742,11.054-4.554l0.027-0.027c2.813-2.813,4.554-6.723,4.554-11.054c0-4.334-1.742-8.244-4.554-11.057
	l-0.027-0.024c-2.813-2.813-6.723-4.554-11.054-4.554c-4.334,0-8.244,1.742-11.057,4.554l-0.024,0.024
	c-2.815,2.813-4.557,6.723-4.557,11.057c0,4.332,1.742,8.242,4.557,11.054L62.897,91.798z"/>
</svg>
