<?xml version="1.0" encoding="utf-8"?>
<!-- Generator: Adobe Illustrator 15.1.0, SVG Export Plug-In . SVG Version: 6.00 Build 0)  -->
<!DOCTYPE svg PUBLIC "-//W3C//DTD SVG 1.1//EN" "http://www.w3.org/Graphics/SVG/1.1/DTD/svg11.dtd">
<svg version="1.1" id="Header" xmlns="http://www.w3.org/2000/svg" xmlns:xlink="http://www.w3.org/1999/xlink" x="0px" y="0px"
	 width="148px" height="148px" viewBox="0 0 148 148" enable-background="new 0 0 148 148" xml:space="preserve">
<path fill-rule="evenodd" clip-rule="evenodd" fill="#FFFFFF" d="M84.251,97.954c5.156-1.175,10.124-3.22,14.697-6.093
	c3.466-2.183,4.509-6.756,2.324-10.23c-2.184-3.474-6.755-4.521-10.227-2.337c-10.375,6.526-23.718,6.512-34.092,0
	c-3.472-2.184-8.043-1.137-10.227,2.337c-2.185,3.46-1.136,8.047,2.324,10.23c4.573,2.874,9.536,4.918,14.697,6.093l-14.136,14.149
	c-2.904,2.902-2.904,7.587,0,10.486c1.453,1.443,3.342,2.172,5.236,2.172c1.9,0,3.789-0.729,5.247-2.172l13.908-13.909l13.91,13.909
	c2.897,2.898,7.584,2.898,10.487,0c2.899-2.899,2.899-7.599,0-10.486L84.251,97.954L84.251,97.954L84.251,97.954z M74.005,41.512
	c5.786,0,10.489,4.703,10.489,10.489c0,5.772-4.703,10.471-10.489,10.471c-5.773,0-10.487-4.699-10.487-10.471
	C63.518,46.215,68.231,41.512,74.005,41.512L74.005,41.512z M74.005,77.3L74.005,77.3c-13.959,0-25.311-11.354-25.311-25.313
	c0-13.96,11.352-25.314,25.311-25.314c13.962,0,25.317,11.354,25.317,25.328C99.322,65.947,87.967,77.3,74.005,77.3z"/>
</svg>
